HIERARCHY
ROOT Hips
{
	OFFSET 0.000000 0.000000 0.000000 
	CHANNELS 6 Xposition Yposition Zposition Zrotation Yrotation Xrotation
	JOINT LeftUpLeg
	{
		OFFSET 1.363060 -1.794630 0.839290 
		CHANNELS 3 Zrotation Yrotation Xrotation
		JOINT LeftLeg
		{
			OFFSET 2.448110 -6.726130 0.000000 
			CHANNELS 3 Zrotation Yrotation Xrotation
			JOINT LeftFoot
			{
				OFFSET 2.562200 -7.039590 0.000000 
				CHANNELS 3 Zrotation Yrotation Xrotation
				JOINT LeftToeBase
				{
					OFFSET 0.157640 -0.433110 2.322550 
					CHANNELS 3 Zrotation Yrotation Xrotation
					End Site
					{
						OFFSET 0.000000 0.000000 0.000000 
					}
				}
			}
		}
	}
	JOINT RightUpLeg
	{
		OFFSET -1.305520 -1.794630 0.839290 
		CHANNELS 3 Zrotation Yrotation Xrotation
		JOINT RightLeg
		{
			OFFSET -2.542530 -6.985550 0.000000 
			CHANNELS 3 Zrotation Yrotation Xrotation
			JOINT RightFoot
			{
				OFFSET -2.568260 -7.056230 0.000000 
				CHANNELS 3 Zrotation Yrotation Xrotation
				JOINT RightToeBase
				{
					OFFSET -0.164730 -0.452590 2.363150 
					CHANNELS 3 Zrotation Yrotation Xrotation
					End Site
					{
						OFFSET 0.000000 0.000000 0.000000 
					}
				}
			}
		}
	}
	JOINT Spine
	{
		OFFSET 0.028270 2.035590 -0.193380 
		CHANNELS 3 Zrotation Yrotation Xrotation
		JOINT Spine1
		{
			OFFSET 0.056720 2.048850 -0.042750 
			CHANNELS 3 Zrotation Yrotation Xrotation
			JOINT Neck1
			{
				OFFSET -0.054170 1.746240 0.172020 
				CHANNELS 3 Zrotation Yrotation Xrotation
				JOINT Head
				{
					OFFSET 0.104070 1.761360 -0.123970 
					CHANNELS 3 Zrotation Yrotation Xrotation
					End Site
					{
						OFFSET 0.000000 0.000000 0.000000 
					}
				}
			}
			JOINT LeftArm
			{
				OFFSET 3.362410 1.200890 -0.311210 
				CHANNELS 3 Zrotation Yrotation Xrotation
				JOINT LeftForeArm
				{
					OFFSET 4.983000 -0.000000 -0.000000 
					CHANNELS 3 Zrotation Yrotation Xrotation
					JOINT LeftHand
					{
						OFFSET 3.483560 -0.000000 -0.000000 
						CHANNELS 3 Zrotation Yrotation Xrotation
						JOINT LeftHandIndex1
						{
							OFFSET 0.715260 -0.000000 -0.000000 
							CHANNELS 3 Zrotation Yrotation Xrotation
							End Site
							{
								OFFSET 0.000000 0.000000 0.000000 
							}
						}
					}
				}
			}
			JOINT RightArm
			{
				OFFSET -3.136600 1.374050 -0.404650 
				CHANNELS 3 Zrotation Yrotation Xrotation
				JOINT RightForeArm
				{
					OFFSET -5.241900 -0.000000 -0.000000 
					CHANNELS 3 Zrotation Yrotation Xrotation
					JOINT RightHand
					{
						OFFSET -3.444170 -0.000000 -0.000000 
						CHANNELS 3 Zrotation Yrotation Xrotation
						JOINT RightHandIndex1
						{
							OFFSET -0.622530 -0.000000 -0.000000 
							CHANNELS 3 Zrotation Yrotation Xrotation
							End Site
							{
								OFFSET 0.000000 0.000000 0.000000 
							}
						}
					}
				}
			}
		}
	}
}
MOTION
Frames: 10
Frame Time: 0.041667
-1.281583 17.865080 -7.342671 -2.704031 36.938211 3.053963 -14.862730 -4.021016 -11.545514 0.568431 7.531792 24.627346 0.407145 -0.112471 -5.177887 0.435200 -4.233100 -11.733500 6.030223 11.527270 -22.904483 -0.394915 -7.545450 21.353990 1.948323 -10.476066 1.821968 -0.141400 -2.423900 6.678600 -0.886116 -2.119297 1.229015 2.123062 -0.866404 1.386790 3.503472 -5.771910 20.619588 2.836100 -3.591000 13.015800 -58.315698 -29.680995 35.129919 93.986691 -60.994281 -67.541158 0.301010 -0.309483 -63.775707 -7.125000 0.000000 0.000000 36.772742 16.185284 20.330582 -78.502946 56.622013 -55.178659 0.208537 0.776416 -42.091863 7.125000 0.000000 0.000000 
-1.292538 17.864477 -7.324481 -2.835347 37.185374 2.891562 -14.659136 -4.003340 -11.478187 0.561537 7.517937 24.576959 0.462075 -0.363011 -5.080698 0.446500 -4.287300 -11.886300 5.930558 11.809695 -22.562981 -0.339367 -7.403332 20.947798 1.957494 -10.562269 2.282802 -0.142600 -2.433600 6.705500 -0.807344 -2.213437 1.245525 2.198257 -0.919351 1.514668 3.510151 -5.778759 20.736516 2.847800 -3.604600 13.109500 -58.206537 -31.328375 35.867599 88.244206 -60.767714 -62.780939 0.375859 -0.253262 -64.271859 -7.125000 0.000000 0.000000 35.868575 17.374466 19.688779 -73.278169 55.697204 -50.278665 0.162724 0.857856 -44.033102 7.125000 0.000000 0.000000 
-1.304397 17.861362 -7.305386 -2.717886 37.429491 2.849614 -14.688296 -3.933429 -11.363069 0.554415 7.497116 24.524226 0.506551 -0.573092 -5.028713 0.479700 -4.441700 -12.322700 5.668626 11.928582 -22.261528 -0.293035 -7.281318 20.569415 1.970323 -10.698945 2.904556 -0.123500 -2.265900 6.241000 -0.783100 -2.296895 1.258594 2.289271 -0.967858 1.613920 3.552960 -5.787487 20.985761 2.875700 -3.618900 13.267400 -58.096036 -33.143622 36.669680 82.453915 -60.243366 -57.836034 0.454021 -0.224988 -64.842540 -7.125000 0.000000 0.000000 34.931545 18.617078 18.824927 -68.191650 54.633223 -45.466075 0.127011 0.948360 -46.198485 7.125000 0.000000 0.000000 
-1.317261 17.860457 -7.286190 -2.565219 37.755333 2.778572 -14.737732 -3.936969 -11.168949 0.544382 7.469760 24.456827 0.540218 -0.747273 -4.950610 0.507200 -4.565400 -12.673100 5.399601 12.007196 -21.904993 -0.256328 -7.181688 20.264431 1.962857 -10.734065 3.403623 -0.098800 -2.027200 5.580900 -0.797561 -2.398034 1.245603 2.332991 -1.019640 1.600089 3.725778 -5.890571 21.199969 2.940200 -3.655500 13.384000 -58.029337 -34.938801 37.532284 76.871374 -59.501534 -52.935007 0.537072 -0.234115 -65.278186 -7.125000 0.000000 0.000000 34.065508 19.909498 17.787617 -63.238442 53.425079 -40.795838 0.100594 1.039069 -48.386917 7.125000 0.000000 0.000000 
-1.333743 17.859754 -7.269608 -2.577425 38.127616 2.602752 -14.623712 -4.032764 -10.963517 0.530300 7.438767 24.368962 0.574286 -0.933349 -4.796546 0.505400 -4.557300 -12.650000 5.284468 12.160447 -21.534154 -0.229093 -7.104815 20.050462 1.948804 -10.710756 3.708838 -0.086200 -1.893800 5.212100 -0.765766 -2.536732 1.234440 2.392102 -1.085344 1.539038 3.842088 -5.945399 21.305985 2.983500 -3.672400 13.431500 -57.997825 -36.810729 38.245374 71.593447 -58.609215 -48.222260 0.621227 -0.280017 -65.706008 -7.125000 0.000000 0.000000 33.207474 21.370741 16.574003 -58.450166 52.063442 -36.333555 0.091479 1.132118 -50.570663 7.125000 0.000000 0.000000 
-1.346205 17.859251 -7.252623 -2.481990 38.388866 2.648437 -14.615618 -4.092751 -10.909011 0.516110 7.411341 24.289746 0.610737 -1.121778 -4.690633 0.488900 -4.483300 -12.440600 5.105308 12.200197 -21.405630 -0.207413 -7.043537 19.857872 1.905349 -10.612284 4.251569 -0.072000 -1.731000 4.762800 -0.707343 -2.653598 1.187828 2.513902 -1.139544 1.521812 3.767077 -5.884428 21.534368 2.965500 -3.665100 13.544900 -58.034256 -38.823196 38.852704 66.303231 -57.530394 -43.484398 0.694770 -0.352536 -66.115138 -7.125000 0.000000 0.000000 32.202066 22.933406 15.214660 -53.907865 50.561456 -32.185531 0.101829 1.239516 -52.622993 7.125000 0.000000 0.000000 
-1.357562 17.856337 -7.234533 -2.384693 38.522983 2.684787 -14.613353 -4.053500 -10.880463 0.512610 7.400619 24.262399 0.642858 -1.272845 -4.661481 0.497500 -4.522000 -12.550200 4.947565 12.278035 -21.276613 -0.186196 -6.983774 19.677905 1.847588 -10.448035 4.759273 -0.066500 -1.664000 4.577900 -0.683300 -2.686633 1.114784 2.554115 -1.145794 1.426288 3.747834 -5.820634 21.739795 2.969400 -3.648100 13.619600 -58.019315 -40.866757 39.546835 61.268603 -56.311749 -38.991500 0.759166 -0.442967 -66.645904 -7.125000 0.000000 0.000000 31.233368 24.417911 13.634561 -49.672348 48.931617 -28.419721 0.128462 1.357560 -54.319385 7.125000 0.000000 0.000000 
-1.372637 17.852417 -7.215136 -2.383473 38.667127 2.597829 -14.519858 -4.062048 -10.787193 0.513495 7.398154 24.257274 0.662324 -1.357514 -4.658567 0.500800 -4.536900 -12.592300 4.889182 12.411488 -21.069926 -0.169239 -6.935585 19.549216 1.811452 -10.328461 5.009780 -0.074400 -1.759700 4.842000 -0.688920 -2.686654 1.072159 2.487880 -1.131561 1.304192 3.764833 -5.780480 21.954353 2.972500 -3.628300 13.697200 -57.980903 -43.046359 40.249455 56.783107 -55.032031 -35.008381 0.828549 -0.536885 -67.529634 -7.125000 0.000000 0.000000 30.372336 25.906836 11.782726 -45.762067 47.191830 -25.040441 0.162472 1.447202 -55.724240 7.125000 0.000000 0.000000 
-1.391330 17.850608 -7.193026 -2.478612 38.868048 2.447310 -14.323792 -4.195085 -10.666079 0.511091 7.394698 24.240790 0.665611 -1.366792 -4.645947 0.486100 -4.470600 -12.404700 4.980526 12.487532 -20.866916 -0.159857 -6.903851 19.469671 1.824451 -10.424710 5.217702 -0.077100 -1.791300 4.929300 -0.606889 -2.784858 1.028548 2.554504 -1.167703 1.177058 3.762629 -5.624245 22.189333 3.007400 -3.577000 13.803600 -58.077003 -45.224498 40.672209 52.796607 -53.708341 -31.507630 0.903014 -0.635669 -69.012157 -7.125000 0.000000 0.000000 29.432512 27.495353 9.930553 -42.251462 45.416104 -22.093355 0.188595 1.506079 -56.811768 7.125000 0.000000 0.000000 
-1.410726 17.851814 -7.171921 -2.609822 39.124250 2.272023 -14.103735 -4.429810 -10.529178 0.507604 7.392682 24.225296 0.666553 -1.368739 -4.620896 0.491900 -4.497100 -12.479500 5.142082 12.488934 -20.672410 -0.157729 -6.885400 19.421367 1.870495 -10.700668 5.537576 -0.075200 -1.768800 4.867000 -0.500645 -2.936857 0.990169 2.644776 -1.228580 1.030536 3.691096 -5.472948 22.444521 3.012600 -3.537100 13.928800 -58.089103 -47.252406 40.860774 49.407871 -52.422010 -28.585780 0.973611 -0.719006 -71.099438 -7.125000 0.000000 0.000000 28.485269 29.062903 7.991549 -39.280784 43.730933 -19.678861 0.212594 1.564039 -57.319946 7.125000 0.000000 0.000000 
